<?xml version="1.0" encoding="UTF-8" standalone="no"?>
<!-- Created with Inkscape (http://www.inkscape.org/) -->

<svg
   width="250"
   height="80"
   viewBox="0 0 66.145832 21.166664"
   version="1.1"
   id="svg1"
   xml:space="preserve"
   inkscape:version="1.4.2 (f4327f4, 2025-05-13)"
   sodipodi:docname="logo-nav.svg"
   xmlns:inkscape="http://www.inkscape.org/namespaces/inkscape"
   xmlns:sodipodi="http://sodipodi.sourceforge.net/DTD/sodipodi-0.dtd"
   xmlns="http://www.w3.org/2000/svg"
   xmlns:svg="http://www.w3.org/2000/svg"><sodipodi:namedview
     id="namedview1"
     pagecolor="#505050"
     bordercolor="#eeeeee"
     borderopacity="1"
     inkscape:showpageshadow="0"
     inkscape:pageopacity="0"
     inkscape:pagecheckerboard="0"
     inkscape:deskcolor="#505050"
     inkscape:document-units="px"
     inkscape:zoom="2.968322"
     inkscape:cx="213.75713"
     inkscape:cy="131.55581"
     inkscape:window-width="1920"
     inkscape:window-height="1051"
     inkscape:window-x="-9"
     inkscape:window-y="-9"
     inkscape:window-maximized="1"
     inkscape:current-layer="g15"
     showgrid="false" /><defs
     id="defs1"><rect
       x="63.335445"
       y="202.1344"
       width="661.65326"
       height="319.37234"
       id="rect4" /></defs><g
     inkscape:label="Capa 1"
     inkscape:groupmode="layer"
     id="layer1"><g
       id="g15"
       transform="matrix(2.133003,0,0,2.2071583,-35.068032,-56.586511)"
       style="display:inline"><text
         xml:space="preserve"
         transform="matrix(0.08350582,0,0,0.08350582,11.050803,10.235239)"
         id="text4"
         style="font-style:normal;font-variant:normal;font-weight:900;font-stretch:normal;font-size:64px;font-family:Arial;-inkscape-font-specification:'Arial, Heavy';font-variant-ligatures:normal;font-variant-caps:normal;font-variant-numeric:normal;font-variant-east-asian:normal;text-align:start;writing-mode:lr-tb;direction:ltr;white-space:pre;shape-inside:url(#rect4);display:inline;fill:#000000;fill-opacity:1;stroke-width:1.00157;stroke-dasharray:none"><tspan
           x="63.335938"
           y="259.51582"
           id="tspan4"><tspan
             style="fill:#e2e3db"
             id="tspan1">ing</tspan><tspan
             style="fill:#02a204"
             id="tspan2">GEO</tspan><tspan
             style="fill:#e2e3db"
             id="tspan3">top</tspan></tspan></text><path
         style="display:none;fill:#02a204;fill-opacity:1;stroke-width:0.264999;stroke-dasharray:none"
         d="m 27.480392,54.078388 13.866254,-17.332817 2.899309,2.899309 3.844732,-6.113758 1.323597,1.197541 4.159877,-5.609532 6.113759,7.248271 1.57571,-1.197541 8.38278,11.849343 -7.941582,-5.735584 -2.521138,2.016908 -5.5465,-7.563411 -5.420445,7.815524 -1.071483,-2.079937 -3.403536,4.348962 -1.57571,-5.042276 z"
         id="path8" /><path
         style="display:none;fill:#02a204;fill-opacity:1;stroke-width:0.264999;stroke-dasharray:none"
         d="M 49.792455,50.170627 C 66.727569,49.66197 83.498557,49.645686 98.450399,55.086845 93.890368,51.428612 86.663116,48.913474 77.398906,47.271318 66.718313,46.548105 58.159151,48.249385 49.792455,50.170627 Z"
         id="path10"
         sodipodi:nodetypes="cccc" /><path
         style="display:none;fill:#02a204;fill-opacity:1;stroke-width:0.264999;stroke-dasharray:none"
         d="M 71.22212,46.767091 V 41.346646"
         id="path11" /><path
         style="display:none;fill:#02a204;fill-opacity:1;stroke-width:0.264999;stroke-dasharray:none"
         d="m 71.726348,48.216747 0.09454,-7.248271 3.435048,-1.638738 v -8.60338 l 4.222904,-1.922367 3.970792,3.876249 0.08662,16.241943 z"
         id="path12"
         sodipodi:nodetypes="cccccccc" /><path
         style="display:none;fill:#02a204;fill-opacity:1;stroke-width:0.264999;stroke-dasharray:none"
         d="m 82.329104,40.727177 2.065957,-0.01081 1.512683,2.174479 -0.252114,6.271327 -3.393378,-0.507394 z"
         id="path13"
         sodipodi:nodetypes="cccccc" /><path
         style="display:none;fill:#02a204;fill-opacity:1;stroke-width:0.264999;stroke-dasharray:none"
         d="m 85.245944,41.315134 0.06303,-3.907764 2.77325,-1.449655 3.624134,3.687165 -0.15757,11.187544 -6.302843,-0.504228 z"
         id="path14"
         sodipodi:nodetypes="ccccccc" /><path
         style="display:none;fill:#02a204;fill-opacity:1;stroke-width:0.264999;stroke-dasharray:none"
         d="m 90.559719,44.063859 2.533266,1.883862 -2e-6,6.681015 -2.962336,-0.882399 z"
         id="path15"
         sodipodi:nodetypes="ccccc" /></g></g></svg>
